<svg width="16" height="18" viewBox="0 0 16 18" fill="none" xmlns="http://www.w3.org/2000/svg">
<path d="M6.15385 16.6165V12.3026C6.15385 12.0011 6.46154 11.6934 6.76923 11.6934H9.23077C9.53846 11.6934 9.84615 12.0011 9.84615 12.3088V16.6165C9.84615 16.7797 9.91099 16.9362 10.0264 17.0516C10.1418 17.167 10.2983 17.2319 10.4615 17.2319H15.3846C15.5478 17.2319 15.7044 17.167 15.8198 17.0516C15.9352 16.9362 16 16.7797 16 16.6165V8.0011C16.0001 7.92023 15.9843 7.84013 15.9535 7.76537C15.9227 7.69061 15.8774 7.62266 15.8203 7.56541L14.1538 5.90018V1.84725C14.1538 1.68404 14.089 1.52752 13.9736 1.41211C13.8582 1.2967 13.7017 1.23187 13.5385 1.23187H12.3077C12.1445 1.23187 11.988 1.2967 11.8725 1.41211C11.7571 1.52752 11.6923 1.68404 11.6923 1.84725V3.43864L8.43569 0.180792C8.37853 0.123484 8.31062 0.0780156 8.23586 0.0469923C8.16109 0.015969 8.08094 0 8 0C7.91906 0 7.83891 0.015969 7.76414 0.0469923C7.68938 0.0780156 7.62147 0.123484 7.56431 0.180792L0.179693 7.56541C0.122583 7.62266 0.077318 7.69061 0.0464851 7.76537C0.0156523 7.84013 -0.000143446 7.92023 9.81532e-07 8.0011V16.6165C9.81532e-07 16.7797 0.0648359 16.9362 0.180243 17.0516C0.29565 17.167 0.452175 17.2319 0.615385 17.2319H5.53846C5.70167 17.2319 5.8582 17.167 5.9736 17.0516C6.08901 16.9362 6.15385 16.7797 6.15385 16.6165Z" fill="black"/>
</svg>
